<svg xmlns="http://www.w3.org/2000/svg" viewBox="0 0 1024 1024" width="1024" height="1024"><defs>
<radialGradient id="halo" cx="512" cy="700" r="310" gradientUnits="userSpaceOnUse">
  <stop offset="0" stop-color="#F3F27A" stop-opacity="0.6"/><stop offset="0.4" stop-color="#B8E04E" stop-opacity="0.2"/>
  <stop offset="1" stop-color="#7BC043" stop-opacity="0"/></radialGradient>
<linearGradient id="abdomen" x1="0" y1="420" x2="0" y2="880" gradientUnits="userSpaceOnUse">
  <stop offset="0" stop-color="#4A3A1C"/><stop offset="0.38" stop-color="#8D9A33"/>
  <stop offset="0.6" stop-color="#E8EE62"/><stop offset="1" stop-color="#FFFBD2"/></linearGradient>
<linearGradient id="wing" x1="0" y1="380" x2="0" y2="840" gradientUnits="userSpaceOnUse">
  <stop offset="0" stop-color="#7D5732"/><stop offset="0.6" stop-color="#5A3B21"/><stop offset="1" stop-color="#3A2413"/></linearGradient>
<radialGradient id="wingShade" cx="420" cy="470" r="420" gradientUnits="userSpaceOnUse">
  <stop offset="0" stop-color="#000" stop-opacity="0"/><stop offset="0.75" stop-color="#000" stop-opacity="0.05"/>
  <stop offset="1" stop-color="#000" stop-opacity="0.35"/></radialGradient>
<radialGradient id="shield" cx="470" cy="330" r="200" gradientUnits="userSpaceOnUse">
  <stop offset="0" stop-color="#F0C576"/><stop offset="0.65" stop-color="#D0913F"/><stop offset="1" stop-color="#A06628"/></radialGradient>
<filter id="rim" x="-200%" y="-20%" width="500%" height="140%"><feGaussianBlur stdDeviation="6"/></filter>
<filter id="soft" x="-20%" y="-20%" width="140%" height="140%"><feGaussianBlur stdDeviation="14"/></filter>
<filter id="bloom" x="-50%" y="-50%" width="200%" height="200%"><feGaussianBlur stdDeviation="28"/></filter>
</defs>
<circle cx="512" cy="700" r="310" fill="url(#halo)"/>
<path d="M482 286 C 462 216, 420 178, 366 166" fill="none" stroke="#3A2413" stroke-width="22" stroke-linecap="round"/>
<path d="M542 286 C 562 216, 604 178, 658 166" fill="none" stroke="#3A2413" stroke-width="22" stroke-linecap="round"/>
<ellipse cx="512" cy="298" rx="62" ry="46" fill="#3A2413"/>
<ellipse cx="512" cy="790" rx="120" ry="90" fill="#F6EE6A" opacity="0.8" filter="url(#bloom)"/>
<path d="M512 400 C 610 400, 640 560, 632 700 C 626 800, 580 880, 512 880 C 444 880, 398 800, 392 700 C 384 560, 414 400, 512 400 Z" fill="url(#abdomen)"/>
<g fill="none" stroke="#5E6A1E" stroke-opacity="0.45" stroke-width="7" stroke-linecap="round">
  <path d="M404 640 Q 512 668 620 640"/><path d="M410 718 Q 512 746 614 718"/><path d="M428 792 Q 512 816 596 792"/>
</g>
<ellipse cx="512" cy="830" rx="56" ry="28" fill="#FFFFF0" opacity="0.7" filter="url(#soft)"/>
<g transform="rotate(12 508 380)">
  <path d="M508 372 C 400 360, 236 410, 228 580 C 222 740, 350 840, 462 830 C 494 827, 508 806, 508 770 Z" fill="#1E140A" opacity="0.45" filter="url(#soft)" transform="translate(10 8)"/>
  <path d="M508 372 C 400 360, 236 410, 228 580 C 222 740, 350 840, 462 830 C 494 827, 508 806, 508 770 Z" fill="url(#wing)"/>
  <path d="M508 372 C 400 360, 236 410, 228 580 C 222 740, 350 840, 462 830 C 494 827, 508 806, 508 770 Z" fill="url(#wingShade)"/>
  <path d="M318 462 C 350 424, 410 404, 462 402" fill="none" stroke="#FFF4DC" stroke-opacity="0.45" stroke-width="24" stroke-linecap="round"/>
  <path d="M504 480 L 504 770" fill="none" stroke="#F6EE6A" stroke-opacity="0.55" stroke-width="22" stroke-linecap="round" filter="url(#rim)"/>
  <path d="M507 500 L 507 768" fill="none" stroke="#FBF5A8" stroke-opacity="0.7" stroke-width="4" stroke-linecap="round"/>
</g>
<g transform="translate(1024 0) scale(-1 1) rotate(12 508 380)">
  <path d="M508 372 C 400 360, 236 410, 228 580 C 222 740, 350 840, 462 830 C 494 827, 508 806, 508 770 Z" fill="#1E140A" opacity="0.45" filter="url(#soft)" transform="translate(10 8)"/>
  <path d="M508 372 C 400 360, 236 410, 228 580 C 222 740, 350 840, 462 830 C 494 827, 508 806, 508 770 Z" fill="url(#wing)"/>
  <path d="M508 372 C 400 360, 236 410, 228 580 C 222 740, 350 840, 462 830 C 494 827, 508 806, 508 770 Z" fill="url(#wingShade)"/>
  <path d="M318 462 C 350 424, 410 404, 462 402" fill="none" stroke="#FFF4DC" stroke-opacity="0.2" stroke-width="24" stroke-linecap="round"/>
  <path d="M504 480 L 504 770" fill="none" stroke="#F6EE6A" stroke-opacity="0.55" stroke-width="22" stroke-linecap="round" filter="url(#rim)"/>
  <path d="M507 500 L 507 768" fill="none" stroke="#FBF5A8" stroke-opacity="0.7" stroke-width="4" stroke-linecap="round"/>
</g>
<path d="M372 432 C 336 432, 330 398, 346 372 C 386 286, 638 286, 678 372 C 694 398, 688 432, 652 432 C 590 450, 434 450, 372 432 Z" fill="#1E140A" opacity="0.5" filter="url(#soft)" transform="translate(0 18)"/>
<path d="M372 432 C 336 432, 330 398, 346 372 C 386 286, 638 286, 678 372 C 694 398, 688 432, 652 432 C 590 450, 434 450, 372 432 Z" fill="url(#shield)"/>
<path d="M408 364 C 426 334, 460 318, 494 314" fill="none" stroke="#FFF4DC" stroke-opacity="0.6" stroke-width="16" stroke-linecap="round"/>
</svg>
